# xmcd
#
# Track frame offsets: 
#        187
#        18637
#        38062
#
# Disc length: 719 seconds
#
# Revision: 5
# Processed by: cddbd v1.5.2PL0 Copyright (c) Steve Scherf et al.
# Submitted via: ExactAudioCopy v0.95b3
#
DISCID=1c02cd03
DTITLE=Helloween - Future World [VICP-2139]
DYEAR=1987
DGENRE=Heavy Metal
TTITLE0=Future World
TTITLE1=Starlight (Michael Kiske Version)
TTITLE2=A Little Time (Another Version)
EXTD=YEAR: 1987
EXTT0=
EXTT1=
EXTT2=
PLAYORDER=
